<?xml version="1.0" encoding="UTF-8"?>
<svg width="20px" height="20px" viewBox="0 0 20 20" version="1.1" xmlns="http://www.w3.org/2000/svg" xmlns:xlink="http://www.w3.org/1999/xlink">
    <!-- Generator: Sketch 55.2 (78181) - https://sketchapp.com -->
    <title>email_black_24dp</title>
    <desc>Created with Sketch.</desc>
    <g id="Page-1" stroke="none" stroke-width="1" fill="none" fill-rule="evenodd">
        <g id="event_black_24dp">
            <polygon id="Path" points="0 0 20 0 20 20 0 20"></polygon>
            <path d="M14.1666667,10 L10,10 L10,14.1666667 L14.1666667,14.1666667 L14.1666667,10 Z M13.3333333,0.833333333 L13.3333333,2.5 L6.66666667,2.5 L6.66666667,0.833333333 L5,0.833333333 L5,2.5 L4.16666667,2.5 C3.24166667,2.5 2.50833333,3.25 2.50833333,4.16666667 L2.5,15.8333333 C2.5,16.75 3.24166667,17.5 4.16666667,17.5 L15.8333333,17.5 C16.75,17.5 17.5,16.75 17.5,15.8333333 L17.5,4.16666667 C17.5,3.25 16.75,2.5 15.8333333,2.5 L15,2.5 L15,0.833333333 L13.3333333,0.833333333 Z M15.8333333,15.8333333 L4.16666667,15.8333333 L4.16666667,6.66666667 L15.8333333,6.66666667 L15.8333333,15.8333333 Z" id="Shape" fill="#FFFFFF" fill-rule="nonzero"></path>
        </g>
    </g>
</svg>