<?xml version="1.0" encoding="UTF-8"?>
<svg width="20px" height="20px" viewBox="0 0 20 20" version="1.1" xmlns="http://www.w3.org/2000/svg" xmlns:xlink="http://www.w3.org/1999/xlink">
    <!-- Generator: Sketch 55.2 (78181) - https://sketchapp.com -->
    <title>email_black_24dp</title>
    <desc>Created with Sketch.</desc>
    <g id="Page-1" stroke="none" stroke-width="1" fill="none" fill-rule="evenodd">
        <g id="event_black_24dp">
            <polygon id="Path" points="0 0 20 0 20 20 0 20"></polygon>
            <path d="M14.1666667,11 L10,11 L10,15.1666667 L14.1666667,15.1666667 L14.1666667,11 Z M13.3333333,1.83333333 L13.3333333,3.5 L6.66666667,3.5 L6.66666667,1.83333333 L5,1.83333333 L5,3.5 L4.16666667,3.5 C3.24166667,3.5 2.50833333,4.25 2.50833333,5.16666667 L2.5,16.8333333 C2.5,17.75 3.24166667,18.5 4.16666667,18.5 L15.8333333,18.5 C16.75,18.5 17.5,17.75 17.5,16.8333333 L17.5,5.16666667 C17.5,4.25 16.75,3.5 15.8333333,3.5 L15,3.5 L15,1.83333333 L13.3333333,1.83333333 Z M15.8333333,16.8333333 L4.16666667,16.8333333 L4.16666667,7.66666667 L15.8333333,7.66666667 L15.8333333,16.8333333 Z" id="Shape" fill="#FFFFFF" fill-rule="nonzero"></path>
        </g>
    </g>
</svg>